<svg width="979" height="979" viewBox="0 0 979 979" fill="none" xmlns="http://www.w3.org/2000/svg">
<path d="M948.667 489.667C948.667 743.349 743.016 949 489.333 949C235.651 949 30 743.349 30 489.667C30 235.984 235.651 30.3334 489.333 30.3334C743.016 30.3334 948.667 235.984 948.667 489.667Z" stroke="black" stroke-width="60" stroke-miterlimit="10"/>
<path d="M776.047 225.953L767.453 288.062C750.266 284.937 733.208 282.594 716.281 281.031C699.354 279.469 682.818 278.687 666.672 278.687C646.099 278.687 625.266 279.99 604.172 282.594C583.339 285.198 562.245 288.974 540.891 293.922L578 872.047L401.437 849L445.187 298.609L418.625 299C390.24 299.521 365.24 298.219 343.625 295.094C322.271 291.969 304.562 286.891 290.5 279.859C270.969 269.964 256.385 256.292 246.75 238.844C237.375 221.396 232.688 199.781 232.688 174V164.234L258.859 155.25C259.901 184.417 270.839 206.292 291.672 220.875C312.766 235.198 343.495 242.359 383.859 242.359C417.974 242.359 468.625 237.281 535.812 227.125C603.26 216.969 654.042 211.891 688.156 211.891C706.125 211.891 722.531 213.193 737.375 215.797C752.219 218.141 765.109 221.526 776.047 225.953ZM518.234 471.266C518.234 461.891 515.891 454.859 511.203 450.172C506.776 445.484 499.875 443.141 490.5 443.141C481.125 443.141 473.964 445.484 469.016 450.172C464.328 454.859 461.984 461.891 461.984 471.266C461.984 480.901 464.328 488.062 469.016 492.75C473.964 497.177 481.125 499.391 490.5 499.391C499.875 499.391 506.776 497.177 511.203 492.75C515.891 488.062 518.234 480.901 518.234 471.266ZM524.875 587.672C524.875 578.036 521.359 569.703 514.328 562.672C507.557 555.38 499.224 551.734 489.328 551.734C479.432 551.734 470.969 555.38 463.937 562.672C456.906 569.703 453.391 578.036 453.391 587.672C453.391 597.828 456.906 606.422 463.937 613.453C470.969 620.484 479.432 624 489.328 624C499.224 624 507.557 620.484 514.328 613.453C521.359 606.422 524.875 597.828 524.875 587.672ZM516.281 710.328C516.281 701.213 513.937 694.312 509.25 689.625C504.823 684.937 497.922 682.594 488.547 682.594C479.172 682.594 472.01 684.937 467.062 689.625C462.375 694.312 460.031 701.213 460.031 710.328C460.031 719.703 462.375 726.734 467.062 731.422C472.01 735.849 479.172 738.062 488.547 738.062C497.922 738.062 504.823 735.849 509.25 731.422C513.937 726.734 516.281 719.703 516.281 710.328Z" fill="black"/>
</svg>
