<svg width="14" height="14" viewBox="0 0 14 14" fill="none" xmlns="http://www.w3.org/2000/svg">
<path d="M7.12516 0.913841L9.28716 2.16184C9.32523 2.18383 9.35684 2.21546 9.37879 2.25356C9.40073 2.29166 9.41224 2.33487 9.41216 2.37884V3.48184L11.8852 4.90984C11.9232 4.93182 11.9548 4.96346 11.9768 5.00156C11.9987 5.03966 12.0102 5.08287 12.0102 5.12684V7.48184L12.9652 8.03284C13.0032 8.05483 13.0348 8.08646 13.0568 8.12456C13.0787 8.16266 13.0902 8.20587 13.0902 8.24984V10.7458C13.0902 10.7898 13.0787 10.833 13.0568 10.8711C13.0348 10.9092 13.0032 10.9409 12.9652 10.9628L10.8032 12.2108C10.7652 12.2328 10.722 12.2443 10.6782 12.2443C10.6343 12.2443 10.5912 12.2328 10.5532 12.2108L9.59716 11.6588L7.12516 13.0858C7.08715 13.1078 7.04404 13.1193 7.00016 13.1193C6.95627 13.1193 6.91316 13.1078 6.87516 13.0858L4.40316 11.6588L3.44716 12.2108C3.40915 12.2328 3.36604 12.2443 3.32216 12.2443C3.27827 12.2443 3.23516 12.2328 3.19716 12.2108L1.03516 10.9628C0.997079 10.9409 0.965473 10.9092 0.943527 10.8711C0.92158 10.833 0.91007 10.7898 0.910157 10.7458V8.24984C0.91007 8.20587 0.92158 8.16266 0.943527 8.12456C0.965473 8.08646 0.997079 8.05483 1.03516 8.03284L1.99016 7.48184V5.12684C1.99007 5.08287 2.00158 5.03966 2.02353 5.00156C2.04547 4.96346 2.07708 4.93182 2.11516 4.90984L4.58816 3.48184V2.37984C4.58807 2.33587 4.59958 2.29266 4.62153 2.25456C4.64347 2.21646 4.67508 2.18483 4.71316 2.16284L6.87516 0.914841C6.91316 0.892899 6.95627 0.881348 7.00016 0.881348C7.04404 0.881348 7.08715 0.891899 7.12516 0.913841ZM8.39316 10.9628C8.35508 10.9409 8.32347 10.9092 8.30153 10.8711C8.27958 10.833 8.26807 10.7898 8.26816 10.7458V8.24984C8.26807 8.20587 8.27958 8.16266 8.30153 8.12456C8.32347 8.08646 8.35508 8.05483 8.39316 8.03284L10.5532 6.78484C10.5912 6.7629 10.6343 6.75135 10.6782 6.75135C10.722 6.75135 10.7652 6.7629 10.8032 6.78484L11.5102 7.19284V5.27084L9.41216 4.06084V4.87484C9.41224 4.91881 9.40073 4.96202 9.37879 5.00012C9.35684 5.03822 9.32523 5.06986 9.28716 5.09184L7.12516 6.33984C7.08715 6.36178 7.04404 6.37333 7.00016 6.37333C6.95627 6.37333 6.91316 6.36178 6.87516 6.33984L4.71316 5.09184C4.67508 5.06986 4.64347 5.03822 4.62153 5.00012C4.59958 4.96202 4.58807 4.91881 4.58816 4.87484V4.05984L2.49016 5.27084V7.19284L3.19716 6.78484C3.23516 6.7629 3.27827 6.75135 3.32216 6.75135C3.36604 6.75135 3.40915 6.7629 3.44716 6.78484L5.60716 8.03284C5.64523 8.05483 5.67684 8.08646 5.69879 8.12456C5.72073 8.16266 5.73224 8.20587 5.73216 8.24984V10.7458C5.73224 10.7898 5.72073 10.833 5.69879 10.8711C5.67684 10.9092 5.64523 10.9409 5.60716 10.9628L4.90216 11.3708L7.00016 12.5818L9.09816 11.3708L8.39316 10.9628ZM5.08816 4.72984L6.75016 5.68984V3.76584L5.08816 2.81084V4.72984ZM8.91216 4.72984V2.81084L7.25016 3.76584V5.68984L8.91216 4.72984ZM7.00016 1.41784L5.34016 2.37784L7.00016 3.33184L8.66016 2.37784L7.00016 1.41784ZM1.41016 10.6018L3.07016 11.5598V9.63884L1.41016 8.68284V10.6018ZM5.23216 10.6018V8.68184L3.57016 9.63884V11.5618L5.23216 10.6018ZM3.32216 7.29084L1.66016 8.25084L3.32116 9.20584L4.98116 8.24984L3.32216 7.29084ZM8.76816 10.6008L10.4282 11.5608V9.63884L8.76816 8.68284V10.6008ZM12.5902 10.6008V8.68284L10.9282 9.63884V11.5608L12.5902 10.6008ZM10.6782 7.29084L9.01816 8.25084L10.6782 9.20584L12.3382 8.24984L10.6782 7.29084Z" fill="currentColor"/>
</svg>
