<svg width="123" height="123" viewBox="0 0 123 123" fill="none" xmlns="http://www.w3.org/2000/svg">
<path d="M8.70801 61.2601C8.70801 82.0621 20.797 100.039 38.327 108.558L13.258 39.8721C10.342 46.4081 8.70801 53.6411 8.70801 61.2601Z" fill="#464342"/>
<path d="M96.74 58.608C96.74 52.113 94.407 47.615 92.406 44.114C89.742 39.785 87.245 36.119 87.245 31.79C87.245 26.959 90.909 22.462 96.07 22.462C96.303 22.462 96.524 22.491 96.751 22.504C87.401 13.938 74.944 8.70801 61.262 8.70801C42.902 8.70801 26.749 18.128 17.352 32.396C18.585 32.433 19.747 32.459 20.734 32.459C26.231 32.459 34.74 31.792 34.74 31.792C37.573 31.625 37.907 35.786 35.077 36.121C35.077 36.121 32.23 36.456 29.062 36.622L48.2 93.547L59.701 59.054L51.513 36.62C48.683 36.454 46.002 36.119 46.002 36.119C43.17 35.953 43.502 31.623 46.334 31.79C46.334 31.79 55.013 32.457 60.177 32.457C65.673 32.457 74.183 31.79 74.183 31.79C77.018 31.623 77.351 35.784 74.52 36.119C74.52 36.119 71.667 36.454 68.505 36.62L87.497 93.114L92.739 75.597C95.011 68.328 96.74 63.107 96.74 58.608Z" fill="#464342"/>
<path d="M62.184 65.8569L46.416 111.676C51.124 113.06 56.103 113.817 61.262 113.817C67.382 113.817 73.251 112.759 78.714 110.838C78.573 110.613 78.445 110.374 78.34 110.114L62.184 65.8569Z" fill="#464342"/>
<path d="M107.376 36.0459C107.602 37.7199 107.73 39.5169 107.73 41.4499C107.73 46.7829 106.734 52.7779 103.734 60.2739L87.681 106.687C103.305 97.5759 113.814 80.6489 113.814 61.2609C113.815 52.1239 111.481 43.5319 107.376 36.0459Z" fill="#464342"/>
<path d="M61.262 0C27.483 0 0 27.481 0 61.26C0 95.043 27.483 122.523 61.262 122.523C95.04 122.523 122.527 95.043 122.527 61.26C122.526 27.481 95.04 0 61.262 0ZM61.262 119.715C29.032 119.715 2.809 93.492 2.809 61.26C2.809 29.03 29.031 2.809 61.262 2.809C93.491 2.809 119.712 29.03 119.712 61.26C119.712 93.492 93.491 119.715 61.262 119.715Z" fill="#464342"/>
</svg>
