<?xml version="1.0" standalone="no"?>
<!DOCTYPE svg PUBLIC "-//W3C//DTD SVG 20010904//EN"
 "http://www.w3.org/TR/2001/REC-SVG-20010904/DTD/svg10.dtd">
<svg version="1.0" xmlns="http://www.w3.org/2000/svg"
 width="700.000000pt" height="700.000000pt" viewBox="0 0 700.000000 700.000000"
 preserveAspectRatio="xMidYMid meet">
<metadata>
Created by potrace 1.14, written by Peter Selinger 2001-2017
</metadata>
<g transform="translate(0.000000,700.000000) scale(0.100000,-0.100000)"
fill="#000000" stroke="none">
<path d="M3328 6995 c-2 -1 -48 -5 -104 -9 -55 -4 -110 -8 -122 -11 -11 -2
-45 -6 -74 -9 -29 -4 -65 -8 -80 -11 -16 -3 -39 -7 -53 -9 -74 -13 -196 -39
-241 -52 -28 -8 -62 -17 -75 -19 -51 -10 -260 -80 -379 -128 -1035 -413 -1825
-1315 -2093 -2392 -24 -96 -52 -227 -61 -290 -2 -16 -8 -50 -12 -75 -20 -129
-29 -271 -29 -485 0 -190 7 -347 20 -415 2 -14 7 -45 9 -70 28 -255 122 -598
238 -875 454 -1075 1423 -1863 2558 -2080 96 -18 123 -23 179 -31 25 -3 57 -8
71 -10 124 -19 557 -26 725 -11 841 76 1625 450 2207 1053 94 98 84 87 159
174 233 273 445 628 582 975 47 120 101 275 112 325 2 8 19 80 38 160 19 80
38 168 43 195 4 28 9 57 10 65 2 8 6 39 9 68 4 29 8 62 10 73 11 54 19 231 19
389 0 232 -13 414 -40 560 -9 47 -14 79 -20 115 -11 72 -83 347 -120 454 -174
510 -453 960 -829 1337 -147 148 -240 231 -369 329 -343 259 -757 467 -1156
579 -69 19 -136 37 -150 40 -14 2 -57 11 -96 20 -40 8 -103 20 -140 26 -38 6
-80 13 -94 15 -14 2 -50 7 -80 10 -30 3 -77 8 -105 11 -49 6 -461 14 -467 9z
m462 -439 c19 -2 58 -7 85 -10 659 -78 1305 -392 1785 -868 238 -236 438 -514
587 -815 72 -146 83 -171 131 -298 88 -235 157 -539 179 -790 17 -199 7 -552
-21 -720 -4 -22 -8 -53 -11 -70 -2 -16 -9 -55 -15 -85 -6 -30 -14 -66 -16 -80
-20 -104 -100 -353 -159 -496 -167 -407 -445 -802 -771 -1094 -106 -96 -127
-113 -236 -195 -387 -291 -888 -501 -1353 -569 -186 -27 -245 -31 -475 -31
-252 0 -343 7 -525 40 -44 8 -91 16 -105 19 -95 16 -324 84 -454 133 -559 210
-1055 591 -1407 1078 -296 409 -503 935 -555 1405 -3 30 -9 78 -13 106 -10 71
-11 463 0 554 4 41 11 100 14 130 3 30 8 62 10 70 2 8 6 33 9 55 4 22 8 51 11
65 3 14 7 34 9 45 2 11 9 38 15 60 6 22 12 49 14 60 2 11 11 47 21 80 10 33
25 83 33 110 9 28 40 112 69 187 190 483 518 926 931 1259 109 88 341 249 358
249 4 0 19 8 33 19 56 39 313 161 442 209 200 75 441 140 580 158 19 2 60 9
90 14 30 5 96 12 145 16 50 3 92 7 93 9 5 5 430 -3 472 -9z"/>
<path d="M1765 5861 c-44 -15 -85 -30 -91 -33 -18 -12 -9 -198 15 -325 53
-273 256 -481 552 -566 74 -22 112 -29 259 -52 93 -14 206 -19 433 -20 l248 0
-6 -100 c-3 -55 -8 -111 -10 -125 -2 -14 -7 -72 -10 -130 -3 -58 -8 -116 -10
-130 -2 -14 -6 -68 -10 -120 -4 -52 -8 -106 -10 -120 -2 -14 -7 -72 -10 -130
-3 -58 -8 -116 -10 -130 -2 -14 -7 -68 -10 -120 -4 -52 -8 -111 -10 -130 -2
-19 -6 -78 -10 -130 -4 -52 -8 -106 -10 -120 -2 -14 -7 -68 -10 -120 -3 -52
-8 -111 -10 -130 -2 -19 -6 -75 -10 -125 -4 -49 -8 -106 -10 -125 -2 -19 -6
-78 -10 -130 -3 -52 -8 -106 -10 -120 -2 -14 -7 -70 -11 -125 -3 -55 -8 -113
-9 -130 -1 -16 -5 -75 -9 -130 -4 -55 -9 -113 -11 -130 -2 -16 -6 -70 -10
-120 -3 -49 -8 -108 -10 -130 -2 -22 -7 -76 -10 -120 -3 -44 -8 -105 -10 -135
-7 -72 -13 -147 -20 -245 -3 -44 -8 -100 -10 -125 -3 -25 -7 -79 -10 -120 -2
-41 -7 -101 -10 -132 -4 -44 -3 -58 7 -59 7 0 22 -2 33 -4 11 -2 40 -7 65 -10
25 -3 61 -8 80 -10 19 -3 107 -14 195 -25 88 -12 171 -23 185 -25 14 -2 48 -7
75 -10 28 -3 64 -7 80 -10 17 -2 86 -11 155 -20 69 -9 140 -18 158 -21 81 -11
101 -13 160 -20 l64 -7 -6 114 c-4 63 -9 137 -11 164 -4 47 -9 133 -21 320 -2
44 -7 112 -9 150 -3 39 -7 104 -10 145 -2 41 -7 116 -10 165 -3 50 -7 117 -10
150 -4 58 -10 141 -20 307 -3 43 -7 113 -10 155 -3 43 -8 119 -10 168 -8 127
-12 197 -19 295 -11 161 -16 235 -21 325 -6 105 -13 216 -20 300 -3 33 -7 105
-10 160 -3 55 -8 132 -10 170 -3 39 -7 106 -10 150 -2 44 -7 114 -10 155 -7
97 -12 179 -20 315 -4 61 -9 130 -10 155 -2 25 -7 95 -10 156 l-7 112 28 6
c16 4 38 8 49 10 11 3 54 11 95 20 127 26 305 51 455 63 170 13 593 6 687 -12
9 -2 45 -6 80 -10 35 -3 70 -8 78 -10 8 -2 33 -6 55 -10 22 -3 52 -8 68 -10
17 -4 27 -1 27 7 0 7 7 60 15 118 9 58 18 123 20 145 3 22 7 51 10 65 2 14 7
43 10 65 l5 41 -67 21 c-56 18 -92 27 -143 38 -3 1 -27 4 -53 9 -27 4 -57 9
-66 11 -120 23 -506 22 -689 -1 -18 -2 -61 -6 -95 -9 -34 -3 -78 -7 -97 -10
-266 -34 -359 -47 -380 -50 -14 -2 -76 -11 -138 -20 -62 -9 -122 -18 -134 -20
-12 -3 -44 -7 -72 -10 -50 -6 -99 -13 -144 -20 -13 -2 -53 -7 -90 -10 -37 -4
-77 -8 -90 -10 -23 -4 -73 -9 -237 -25 -117 -11 -489 -10 -557 2 -116 19 -206
41 -267 65 -227 90 -345 244 -376 488 -3 27 -7 50 -8 51 -1 1 -38 -11 -82 -25z
m1871 -2066 c46 -35 66 -84 67 -160 0 -75 -16 -124 -51 -157 -64 -61 -225 -63
-290 -4 -42 37 -55 76 -55 156 -1 145 67 204 220 197 60 -3 78 -9 109 -32z
m-6 -779 c77 -50 120 -132 120 -223 -1 -139 -98 -241 -239 -251 -57 -4 -74 -1
-117 21 -59 30 -99 68 -127 122 -29 56 -29 164 0 221 24 46 75 99 115 120 72
37 183 33 248 -10z m-21 -922 c15 -9 38 -32 51 -52 22 -31 25 -47 25 -121 0
-72 -4 -92 -22 -122 -32 -51 -89 -74 -179 -73 -124 2 -182 53 -192 172 -13
151 65 227 221 217 38 -3 81 -12 96 -21z"/>
</g>
</svg>
